<mxfile host="app.diagrams.net" modified="2023-08-06T08:39:30.264Z" agent="Mozilla/5.0 (Windows NT 10.0; Win64; x64) AppleWebKit/537.36 (KHTML, like Gecko) Chrome/115.0.0.0 Safari/537.36" etag="0RvDDt1iQ1TtDZcKR2Zp" version="21.6.6" type="github">
  <diagram name="Page-1" id="HtAcLtHkczY1ligh3v8u">
    <mxGraphModel dx="792" dy="434" grid="1" gridSize="10" guides="1" tooltips="1" connect="1" arrows="1" fold="1" page="1" pageScale="1" pageWidth="850" pageHeight="1100" math="0" shadow="0">
      <root>
        <mxCell id="0" />
        <mxCell id="1" parent="0" />
        <mxCell id="fxuuurCv_EN5jlDv2_y5-1" value="&lt;b&gt;airlines&lt;/b&gt;" style="rounded=0;whiteSpace=wrap;html=1;fillColor=#f5f5f5;fontColor=#333333;strokeColor=#666666;fontSize=18;" vertex="1" parent="1">
          <mxGeometry x="927.5" y="410" width="120" height="40" as="geometry" />
        </mxCell>
        <mxCell id="fxuuurCv_EN5jlDv2_y5-2" value="&lt;u style=&quot;font-size: 18px;&quot;&gt;id&lt;/u&gt;" style="ellipse;whiteSpace=wrap;html=1;fillColor=#f5f5f5;fontColor=#333333;strokeColor=#666666;fontSize=18;" vertex="1" parent="1">
          <mxGeometry x="1087.5" y="335" width="100" height="50" as="geometry" />
        </mxCell>
        <mxCell id="fxuuurCv_EN5jlDv2_y5-3" value="name" style="ellipse;whiteSpace=wrap;html=1;fillColor=#f5f5f5;fontColor=#333333;strokeColor=#666666;fontSize=18;" vertex="1" parent="1">
          <mxGeometry x="887.5" y="270" width="110" height="60" as="geometry" />
        </mxCell>
        <mxCell id="fxuuurCv_EN5jlDv2_y5-4" value="address" style="ellipse;whiteSpace=wrap;html=1;fillColor=#f5f5f5;fontColor=#333333;strokeColor=#666666;fontSize=18;" vertex="1" parent="1">
          <mxGeometry x="1007.5" y="270" width="110" height="60" as="geometry" />
        </mxCell>
        <mxCell id="fxuuurCv_EN5jlDv2_y5-5" value="name_of contact persone" style="ellipse;whiteSpace=wrap;html=1;fillColor=#f5f5f5;fontColor=#333333;strokeColor=#666666;fontSize=18;" vertex="1" parent="1">
          <mxGeometry x="737.5" y="310" width="160" height="60" as="geometry" />
        </mxCell>
        <mxCell id="fxuuurCv_EN5jlDv2_y5-6" value="" style="ellipse;whiteSpace=wrap;html=1;fillColor=#f5f5f5;fontColor=#333333;strokeColor=#666666;fontSize=18;" vertex="1" parent="1">
          <mxGeometry x="747.5" y="380" width="120" height="70" as="geometry" />
        </mxCell>
        <mxCell id="fxuuurCv_EN5jlDv2_y5-7" value="telephone numbers" style="ellipse;whiteSpace=wrap;html=1;fillColor=#f5f5f5;fontColor=#333333;strokeColor=#666666;fontSize=18;" vertex="1" parent="1">
          <mxGeometry x="755" y="385" width="105" height="60" as="geometry" />
        </mxCell>
        <mxCell id="fxuuurCv_EN5jlDv2_y5-8" value="" style="endArrow=none;html=1;rounded=0;exitX=0.393;exitY=0.018;exitDx=0;exitDy=0;exitPerimeter=0;entryX=0.5;entryY=1;entryDx=0;entryDy=0;fillColor=#f5f5f5;strokeColor=#666666;fontSize=18;" edge="1" parent="1" source="fxuuurCv_EN5jlDv2_y5-1" target="fxuuurCv_EN5jlDv2_y5-3">
          <mxGeometry width="50" height="50" relative="1" as="geometry">
            <mxPoint x="887.5" y="380" as="sourcePoint" />
            <mxPoint x="937.5" y="330" as="targetPoint" />
          </mxGeometry>
        </mxCell>
        <mxCell id="fxuuurCv_EN5jlDv2_y5-9" value="" style="endArrow=none;html=1;rounded=0;exitX=0.066;exitY=-0.029;exitDx=0;exitDy=0;exitPerimeter=0;entryX=1;entryY=1;entryDx=0;entryDy=0;fillColor=#f5f5f5;strokeColor=#666666;fontSize=18;" edge="1" parent="1" source="fxuuurCv_EN5jlDv2_y5-1" target="fxuuurCv_EN5jlDv2_y5-5">
          <mxGeometry width="50" height="50" relative="1" as="geometry">
            <mxPoint x="847.5" y="420" as="sourcePoint" />
            <mxPoint x="897.5" y="370" as="targetPoint" />
          </mxGeometry>
        </mxCell>
        <mxCell id="fxuuurCv_EN5jlDv2_y5-10" value="" style="endArrow=none;html=1;rounded=0;exitX=0;exitY=0.5;exitDx=0;exitDy=0;entryX=1;entryY=0.5;entryDx=0;entryDy=0;fillColor=#f5f5f5;strokeColor=#666666;fontSize=18;" edge="1" parent="1" source="fxuuurCv_EN5jlDv2_y5-1" target="fxuuurCv_EN5jlDv2_y5-6">
          <mxGeometry width="50" height="50" relative="1" as="geometry">
            <mxPoint x="945.5" y="419" as="sourcePoint" />
            <mxPoint x="891.5" y="371" as="targetPoint" />
          </mxGeometry>
        </mxCell>
        <mxCell id="fxuuurCv_EN5jlDv2_y5-11" value="" style="endArrow=none;html=1;rounded=0;exitX=0.5;exitY=0;exitDx=0;exitDy=0;entryX=0;entryY=1;entryDx=0;entryDy=0;fillColor=#f5f5f5;strokeColor=#666666;fontSize=18;" edge="1" parent="1" source="fxuuurCv_EN5jlDv2_y5-1" target="fxuuurCv_EN5jlDv2_y5-4">
          <mxGeometry width="50" height="50" relative="1" as="geometry">
            <mxPoint x="955.5" y="429" as="sourcePoint" />
            <mxPoint x="1032.5" y="330" as="targetPoint" />
          </mxGeometry>
        </mxCell>
        <mxCell id="fxuuurCv_EN5jlDv2_y5-12" value="" style="endArrow=none;html=1;rounded=0;exitX=0.049;exitY=0.673;exitDx=0;exitDy=0;exitPerimeter=0;entryX=0.899;entryY=0.018;entryDx=0;entryDy=0;entryPerimeter=0;fillColor=#f5f5f5;strokeColor=#666666;fontSize=18;" edge="1" parent="1" source="fxuuurCv_EN5jlDv2_y5-2" target="fxuuurCv_EN5jlDv2_y5-1">
          <mxGeometry width="50" height="50" relative="1" as="geometry">
            <mxPoint x="965.5" y="439" as="sourcePoint" />
            <mxPoint x="911.5" y="391" as="targetPoint" />
          </mxGeometry>
        </mxCell>
        <mxCell id="fxuuurCv_EN5jlDv2_y5-13" value="&lt;b&gt;employees&lt;/b&gt;" style="rounded=0;whiteSpace=wrap;html=1;fillColor=#f5f5f5;fontColor=#333333;strokeColor=#666666;fontSize=18;" vertex="1" parent="1">
          <mxGeometry x="1417.5" y="410" width="120" height="40" as="geometry" />
        </mxCell>
        <mxCell id="fxuuurCv_EN5jlDv2_y5-14" value="&lt;u style=&quot;font-size: 18px;&quot;&gt;id&lt;/u&gt;" style="ellipse;whiteSpace=wrap;html=1;fillColor=#f5f5f5;fontColor=#333333;strokeColor=#666666;fontSize=18;" vertex="1" parent="1">
          <mxGeometry x="1667.5" y="430" width="100" height="50" as="geometry" />
        </mxCell>
        <mxCell id="fxuuurCv_EN5jlDv2_y5-15" value="name" style="ellipse;whiteSpace=wrap;html=1;fillColor=#f5f5f5;fontColor=#333333;strokeColor=#666666;fontSize=18;" vertex="1" parent="1">
          <mxGeometry x="1672.5" y="370" width="95" height="50" as="geometry" />
        </mxCell>
        <mxCell id="fxuuurCv_EN5jlDv2_y5-16" value="address" style="ellipse;whiteSpace=wrap;html=1;fillColor=#f5f5f5;fontColor=#333333;strokeColor=#666666;fontSize=18;" vertex="1" parent="1">
          <mxGeometry x="1637.5" y="310" width="100" height="50" as="geometry" />
        </mxCell>
        <mxCell id="fxuuurCv_EN5jlDv2_y5-17" value="birthday" style="ellipse;whiteSpace=wrap;html=1;fillColor=#f5f5f5;fontColor=#333333;strokeColor=#666666;fontSize=18;" vertex="1" parent="1">
          <mxGeometry x="1532.5" y="260" width="110" height="60" as="geometry" />
        </mxCell>
        <mxCell id="fxuuurCv_EN5jlDv2_y5-18" value="" style="ellipse;whiteSpace=wrap;html=1;fillColor=#f5f5f5;fontColor=#333333;strokeColor=#666666;fontSize=18;" vertex="1" parent="1">
          <mxGeometry x="1297.5" y="232.5" width="120" height="70" as="geometry" />
        </mxCell>
        <mxCell id="fxuuurCv_EN5jlDv2_y5-19" value="qualifications" style="ellipse;whiteSpace=wrap;html=1;fillColor=#f5f5f5;fontColor=#333333;strokeColor=#666666;fontSize=18;" vertex="1" parent="1">
          <mxGeometry x="1305" y="237.5" width="105" height="60" as="geometry" />
        </mxCell>
        <mxCell id="fxuuurCv_EN5jlDv2_y5-20" value="" style="endArrow=none;html=1;rounded=0;exitX=1;exitY=0.25;exitDx=0;exitDy=0;entryX=0;entryY=0.5;entryDx=0;entryDy=0;fillColor=#f5f5f5;strokeColor=#666666;fontSize=18;" edge="1" parent="1" source="fxuuurCv_EN5jlDv2_y5-13" target="fxuuurCv_EN5jlDv2_y5-15">
          <mxGeometry width="50" height="50" relative="1" as="geometry">
            <mxPoint x="1377.5" y="380" as="sourcePoint" />
            <mxPoint x="1427.5" y="330" as="targetPoint" />
          </mxGeometry>
        </mxCell>
        <mxCell id="fxuuurCv_EN5jlDv2_y5-21" value="" style="endArrow=none;html=1;rounded=0;exitX=0.923;exitY=0.041;exitDx=0;exitDy=0;exitPerimeter=0;fillColor=#f5f5f5;strokeColor=#666666;fontSize=18;" edge="1" parent="1" source="fxuuurCv_EN5jlDv2_y5-13" target="fxuuurCv_EN5jlDv2_y5-17">
          <mxGeometry width="50" height="50" relative="1" as="geometry">
            <mxPoint x="1337.5" y="420" as="sourcePoint" />
            <mxPoint x="1387.5" y="370" as="targetPoint" />
          </mxGeometry>
        </mxCell>
        <mxCell id="fxuuurCv_EN5jlDv2_y5-22" value="" style="endArrow=none;html=1;rounded=0;exitX=0.75;exitY=0;exitDx=0;exitDy=0;entryX=0.664;entryY=0.94;entryDx=0;entryDy=0;entryPerimeter=0;fillColor=#f5f5f5;strokeColor=#666666;fontSize=18;" edge="1" parent="1" source="fxuuurCv_EN5jlDv2_y5-13" target="fxuuurCv_EN5jlDv2_y5-27">
          <mxGeometry width="50" height="50" relative="1" as="geometry">
            <mxPoint x="1435.5" y="419" as="sourcePoint" />
            <mxPoint x="1381.5" y="371" as="targetPoint" />
          </mxGeometry>
        </mxCell>
        <mxCell id="fxuuurCv_EN5jlDv2_y5-23" value="" style="endArrow=none;html=1;rounded=0;exitX=1;exitY=0;exitDx=0;exitDy=0;entryX=0.258;entryY=0.922;entryDx=0;entryDy=0;entryPerimeter=0;fillColor=#f5f5f5;strokeColor=#666666;fontSize=18;" edge="1" parent="1" source="fxuuurCv_EN5jlDv2_y5-13" target="fxuuurCv_EN5jlDv2_y5-16">
          <mxGeometry width="50" height="50" relative="1" as="geometry">
            <mxPoint x="1445.5" y="429" as="sourcePoint" />
            <mxPoint x="1522.5" y="330" as="targetPoint" />
          </mxGeometry>
        </mxCell>
        <mxCell id="fxuuurCv_EN5jlDv2_y5-24" value="" style="endArrow=none;html=1;rounded=0;exitX=0.049;exitY=0.673;exitDx=0;exitDy=0;exitPerimeter=0;entryX=1;entryY=1;entryDx=0;entryDy=0;fillColor=#f5f5f5;strokeColor=#666666;fontSize=18;" edge="1" parent="1" source="fxuuurCv_EN5jlDv2_y5-14" target="fxuuurCv_EN5jlDv2_y5-13">
          <mxGeometry width="50" height="50" relative="1" as="geometry">
            <mxPoint x="1455.5" y="439" as="sourcePoint" />
            <mxPoint x="1401.5" y="391" as="targetPoint" />
          </mxGeometry>
        </mxCell>
        <mxCell id="fxuuurCv_EN5jlDv2_y5-25" value="month" style="ellipse;whiteSpace=wrap;html=1;fillColor=#f5f5f5;fontColor=#333333;strokeColor=#666666;fontSize=18;" vertex="1" parent="1">
          <mxGeometry x="1617.5" y="160" width="100" height="60" as="geometry" />
        </mxCell>
        <mxCell id="fxuuurCv_EN5jlDv2_y5-26" value="year" style="ellipse;whiteSpace=wrap;html=1;fillColor=#f5f5f5;fontColor=#333333;strokeColor=#666666;fontSize=18;" vertex="1" parent="1">
          <mxGeometry x="1697.5" y="230" width="100" height="50" as="geometry" />
        </mxCell>
        <mxCell id="fxuuurCv_EN5jlDv2_y5-27" value="gender" style="ellipse;whiteSpace=wrap;html=1;fillColor=#f5f5f5;fontColor=#333333;strokeColor=#666666;fontSize=18;" vertex="1" parent="1">
          <mxGeometry x="1422.5" y="237.5" width="110" height="55" as="geometry" />
        </mxCell>
        <mxCell id="fxuuurCv_EN5jlDv2_y5-28" value="position" style="ellipse;whiteSpace=wrap;html=1;fillColor=#f5f5f5;fontColor=#333333;strokeColor=#666666;fontSize=18;" vertex="1" parent="1">
          <mxGeometry x="1267.5" y="310" width="100" height="60" as="geometry" />
        </mxCell>
        <mxCell id="fxuuurCv_EN5jlDv2_y5-29" value="" style="endArrow=none;html=1;rounded=0;entryX=1;entryY=1;entryDx=0;entryDy=0;exitX=0.5;exitY=0;exitDx=0;exitDy=0;fillColor=#f5f5f5;strokeColor=#666666;fontSize=18;" edge="1" parent="1" source="fxuuurCv_EN5jlDv2_y5-13" target="fxuuurCv_EN5jlDv2_y5-18">
          <mxGeometry width="50" height="50" relative="1" as="geometry">
            <mxPoint x="1397.5" y="370" as="sourcePoint" />
            <mxPoint x="1447.5" y="320" as="targetPoint" />
          </mxGeometry>
        </mxCell>
        <mxCell id="fxuuurCv_EN5jlDv2_y5-30" value="" style="endArrow=none;html=1;rounded=0;exitX=0.129;exitY=-0.006;exitDx=0;exitDy=0;exitPerimeter=0;entryX=0.953;entryY=0.744;entryDx=0;entryDy=0;entryPerimeter=0;fillColor=#f5f5f5;strokeColor=#666666;fontSize=18;" edge="1" parent="1" source="fxuuurCv_EN5jlDv2_y5-13" target="fxuuurCv_EN5jlDv2_y5-28">
          <mxGeometry width="50" height="50" relative="1" as="geometry">
            <mxPoint x="1307.5" y="410" as="sourcePoint" />
            <mxPoint x="1357.5" y="360" as="targetPoint" />
          </mxGeometry>
        </mxCell>
        <mxCell id="fxuuurCv_EN5jlDv2_y5-31" value="" style="endArrow=none;html=1;rounded=0;entryX=0.626;entryY=1.006;entryDx=0;entryDy=0;entryPerimeter=0;fillColor=#f5f5f5;strokeColor=#666666;fontSize=18;" edge="1" parent="1" source="fxuuurCv_EN5jlDv2_y5-17">
          <mxGeometry width="50" height="50" relative="1" as="geometry">
            <mxPoint x="1497.5" y="280" as="sourcePoint" />
            <mxPoint x="1569.5" y="210" as="targetPoint" />
          </mxGeometry>
        </mxCell>
        <mxCell id="fxuuurCv_EN5jlDv2_y5-32" value="" style="endArrow=none;html=1;rounded=0;entryX=0;entryY=1;entryDx=0;entryDy=0;exitX=0.59;exitY=0.004;exitDx=0;exitDy=0;exitPerimeter=0;fillColor=#f5f5f5;strokeColor=#666666;fontSize=18;" edge="1" parent="1" source="fxuuurCv_EN5jlDv2_y5-17" target="fxuuurCv_EN5jlDv2_y5-25">
          <mxGeometry width="50" height="50" relative="1" as="geometry">
            <mxPoint x="1397.5" y="360" as="sourcePoint" />
            <mxPoint x="1447.5" y="310" as="targetPoint" />
          </mxGeometry>
        </mxCell>
        <mxCell id="fxuuurCv_EN5jlDv2_y5-33" value="" style="endArrow=none;html=1;rounded=0;exitX=1;exitY=0.5;exitDx=0;exitDy=0;entryX=0;entryY=0.5;entryDx=0;entryDy=0;fillColor=#f5f5f5;strokeColor=#666666;fontSize=18;" edge="1" parent="1" source="fxuuurCv_EN5jlDv2_y5-17" target="fxuuurCv_EN5jlDv2_y5-26">
          <mxGeometry width="50" height="50" relative="1" as="geometry">
            <mxPoint x="1637.5" y="340" as="sourcePoint" />
            <mxPoint x="1687.5" y="290" as="targetPoint" />
          </mxGeometry>
        </mxCell>
        <mxCell id="fxuuurCv_EN5jlDv2_y5-34" value="&lt;b&gt;aircraft&lt;/b&gt;" style="rounded=0;whiteSpace=wrap;html=1;fillColor=#f5f5f5;fontColor=#333333;strokeColor=#666666;fontSize=18;" vertex="1" parent="1">
          <mxGeometry x="917.5" y="770" width="120" height="40" as="geometry" />
        </mxCell>
        <mxCell id="fxuuurCv_EN5jlDv2_y5-35" value="&lt;u style=&quot;font-size: 18px;&quot;&gt;id&lt;/u&gt;" style="ellipse;whiteSpace=wrap;html=1;fillColor=#f5f5f5;fontColor=#333333;strokeColor=#666666;fontSize=18;" vertex="1" parent="1">
          <mxGeometry x="957.5" y="900" width="100" height="50" as="geometry" />
        </mxCell>
        <mxCell id="fxuuurCv_EN5jlDv2_y5-36" value="model" style="ellipse;whiteSpace=wrap;html=1;fillColor=#f5f5f5;fontColor=#333333;strokeColor=#666666;fontSize=18;" vertex="1" parent="1">
          <mxGeometry x="740" y="840" width="110" height="60" as="geometry" />
        </mxCell>
        <mxCell id="fxuuurCv_EN5jlDv2_y5-37" value="capacity" style="ellipse;whiteSpace=wrap;html=1;fillColor=#f5f5f5;fontColor=#333333;strokeColor=#666666;fontSize=18;" vertex="1" parent="1">
          <mxGeometry x="837.5" y="890" width="110" height="60" as="geometry" />
        </mxCell>
        <mxCell id="fxuuurCv_EN5jlDv2_y5-38" value="" style="endArrow=none;html=1;rounded=0;exitX=0;exitY=0.75;exitDx=0;exitDy=0;entryX=0.949;entryY=0.317;entryDx=0;entryDy=0;entryPerimeter=0;fillColor=#f5f5f5;strokeColor=#666666;fontSize=18;" edge="1" parent="1" source="fxuuurCv_EN5jlDv2_y5-34" target="fxuuurCv_EN5jlDv2_y5-36">
          <mxGeometry width="50" height="50" relative="1" as="geometry">
            <mxPoint x="862.5" y="740" as="sourcePoint" />
            <mxPoint x="912.5" y="690" as="targetPoint" />
          </mxGeometry>
        </mxCell>
        <mxCell id="fxuuurCv_EN5jlDv2_y5-39" value="" style="endArrow=none;html=1;rounded=0;exitX=0.25;exitY=1;exitDx=0;exitDy=0;entryX=0.669;entryY=-0.008;entryDx=0;entryDy=0;entryPerimeter=0;fillColor=#f5f5f5;strokeColor=#666666;fontSize=18;" edge="1" parent="1" source="fxuuurCv_EN5jlDv2_y5-34" target="fxuuurCv_EN5jlDv2_y5-37">
          <mxGeometry width="50" height="50" relative="1" as="geometry">
            <mxPoint x="930.5" y="789" as="sourcePoint" />
            <mxPoint x="1007.5" y="690" as="targetPoint" />
          </mxGeometry>
        </mxCell>
        <mxCell id="fxuuurCv_EN5jlDv2_y5-40" value="" style="endArrow=none;html=1;rounded=0;exitX=0.321;exitY=0.011;exitDx=0;exitDy=0;exitPerimeter=0;entryX=0.5;entryY=1;entryDx=0;entryDy=0;fillColor=#f5f5f5;strokeColor=#666666;fontSize=18;" edge="1" parent="1" source="fxuuurCv_EN5jlDv2_y5-35" target="fxuuurCv_EN5jlDv2_y5-34">
          <mxGeometry width="50" height="50" relative="1" as="geometry">
            <mxPoint x="940.5" y="799" as="sourcePoint" />
            <mxPoint x="886.5" y="751" as="targetPoint" />
          </mxGeometry>
        </mxCell>
        <mxCell id="fxuuurCv_EN5jlDv2_y5-41" value="owns" style="rhombus;whiteSpace=wrap;html=1;fillColor=#f5f5f5;fontColor=#333333;strokeColor=#666666;fontSize=18;" vertex="1" parent="1">
          <mxGeometry x="947.5" y="570" width="80" height="80" as="geometry" />
        </mxCell>
        <mxCell id="fxuuurCv_EN5jlDv2_y5-42" value="" style="endArrow=none;html=1;rounded=0;exitX=0.5;exitY=0;exitDx=0;exitDy=0;fillColor=#f5f5f5;strokeColor=#666666;fontSize=18;" edge="1" parent="1">
          <mxGeometry width="50" height="50" relative="1" as="geometry">
            <mxPoint x="987" y="770" as="sourcePoint" />
            <mxPoint x="987" y="650" as="targetPoint" />
          </mxGeometry>
        </mxCell>
        <mxCell id="fxuuurCv_EN5jlDv2_y5-43" value="m" style="text;html=1;align=center;verticalAlign=middle;resizable=0;points=[];autosize=1;fontSize=18;" vertex="1" parent="1">
          <mxGeometry x="957.5" y="735" width="40" height="40" as="geometry" />
        </mxCell>
        <mxCell id="fxuuurCv_EN5jlDv2_y5-44" value="" style="endArrow=none;html=1;rounded=0;exitX=0.5;exitY=0;exitDx=0;exitDy=0;entryX=0.5;entryY=1;entryDx=0;entryDy=0;fillColor=#f5f5f5;strokeColor=#666666;fontSize=18;" edge="1" parent="1" source="fxuuurCv_EN5jlDv2_y5-41" target="fxuuurCv_EN5jlDv2_y5-1">
          <mxGeometry width="50" height="50" relative="1" as="geometry">
            <mxPoint x="967.5" y="500" as="sourcePoint" />
            <mxPoint x="1017.5" y="450" as="targetPoint" />
          </mxGeometry>
        </mxCell>
        <mxCell id="fxuuurCv_EN5jlDv2_y5-45" value="" style="endArrow=none;html=1;rounded=0;entryX=0.443;entryY=1;entryDx=0;entryDy=0;entryPerimeter=0;exitX=0.414;exitY=0.123;exitDx=0;exitDy=0;exitPerimeter=0;fillColor=#f5f5f5;strokeColor=#666666;fontSize=18;" edge="1" parent="1" source="fxuuurCv_EN5jlDv2_y5-41" target="fxuuurCv_EN5jlDv2_y5-1">
          <mxGeometry width="50" height="50" relative="1" as="geometry">
            <mxPoint x="907.5" y="510" as="sourcePoint" />
            <mxPoint x="957.5" y="460" as="targetPoint" />
          </mxGeometry>
        </mxCell>
        <mxCell id="fxuuurCv_EN5jlDv2_y5-46" value="&lt;b&gt;routes&lt;/b&gt;" style="rounded=0;whiteSpace=wrap;html=1;fillColor=#f5f5f5;fontColor=#333333;strokeColor=#666666;fontSize=18;" vertex="1" parent="1">
          <mxGeometry x="1600.5" y="770" width="120" height="40" as="geometry" />
        </mxCell>
        <mxCell id="fxuuurCv_EN5jlDv2_y5-47" value="distination" style="ellipse;whiteSpace=wrap;html=1;fillColor=#f5f5f5;fontColor=#333333;strokeColor=#666666;fontSize=18;" vertex="1" parent="1">
          <mxGeometry x="1807.5" y="815" width="110" height="65" as="geometry" />
        </mxCell>
        <mxCell id="fxuuurCv_EN5jlDv2_y5-48" value="origin" style="ellipse;whiteSpace=wrap;html=1;fillColor=#f5f5f5;fontColor=#333333;strokeColor=#666666;fontSize=18;" vertex="1" parent="1">
          <mxGeometry x="1717.5" y="880" width="110" height="60" as="geometry" />
        </mxCell>
        <mxCell id="fxuuurCv_EN5jlDv2_y5-49" value="&lt;u style=&quot;font-size: 18px;&quot;&gt;id&lt;/u&gt;" style="ellipse;whiteSpace=wrap;html=1;fillColor=#f5f5f5;fontColor=#333333;strokeColor=#666666;fontSize=18;" vertex="1" parent="1">
          <mxGeometry x="1802.5" y="736" width="110" height="52" as="geometry" />
        </mxCell>
        <mxCell id="fxuuurCv_EN5jlDv2_y5-50" value="distance" style="ellipse;whiteSpace=wrap;html=1;fillColor=#f5f5f5;fontColor=#333333;strokeColor=#666666;fontSize=18;" vertex="1" parent="1">
          <mxGeometry x="1605.5" y="900" width="110" height="70" as="geometry" />
        </mxCell>
        <mxCell id="fxuuurCv_EN5jlDv2_y5-51" value="classification" style="ellipse;whiteSpace=wrap;html=1;fillColor=#f5f5f5;fontColor=#333333;strokeColor=#666666;fontSize=18;" vertex="1" parent="1">
          <mxGeometry x="1517.5" y="847.5" width="115" height="60" as="geometry" />
        </mxCell>
        <mxCell id="fxuuurCv_EN5jlDv2_y5-52" value="" style="endArrow=none;html=1;rounded=0;exitX=1;exitY=0;exitDx=0;exitDy=0;entryX=0.115;entryY=1.018;entryDx=0;entryDy=0;entryPerimeter=0;fillColor=#f5f5f5;strokeColor=#666666;fontSize=18;" edge="1" parent="1" source="fxuuurCv_EN5jlDv2_y5-51" target="fxuuurCv_EN5jlDv2_y5-46">
          <mxGeometry width="50" height="50" relative="1" as="geometry">
            <mxPoint x="1542.5" y="860" as="sourcePoint" />
            <mxPoint x="1592.5" y="810" as="targetPoint" />
          </mxGeometry>
        </mxCell>
        <mxCell id="fxuuurCv_EN5jlDv2_y5-53" value="" style="endArrow=none;html=1;rounded=0;entryX=0.364;entryY=0.994;entryDx=0;entryDy=0;entryPerimeter=0;exitX=0.5;exitY=0;exitDx=0;exitDy=0;fillColor=#f5f5f5;strokeColor=#666666;fontSize=18;" edge="1" parent="1" source="fxuuurCv_EN5jlDv2_y5-50" target="fxuuurCv_EN5jlDv2_y5-46">
          <mxGeometry width="50" height="50" relative="1" as="geometry">
            <mxPoint x="1622.5" y="880" as="sourcePoint" />
            <mxPoint x="1672.5" y="830" as="targetPoint" />
          </mxGeometry>
        </mxCell>
        <mxCell id="fxuuurCv_EN5jlDv2_y5-54" value="" style="endArrow=none;html=1;rounded=0;entryX=0.75;entryY=1;entryDx=0;entryDy=0;exitX=0;exitY=0;exitDx=0;exitDy=0;fillColor=#f5f5f5;strokeColor=#666666;fontSize=18;" edge="1" parent="1" source="fxuuurCv_EN5jlDv2_y5-48" target="fxuuurCv_EN5jlDv2_y5-46">
          <mxGeometry width="50" height="50" relative="1" as="geometry">
            <mxPoint x="1682.5" y="880" as="sourcePoint" />
            <mxPoint x="1732.5" y="830" as="targetPoint" />
          </mxGeometry>
        </mxCell>
        <mxCell id="fxuuurCv_EN5jlDv2_y5-55" value="" style="endArrow=none;html=1;rounded=0;exitX=0.074;exitY=0.231;exitDx=0;exitDy=0;exitPerimeter=0;entryX=0.948;entryY=0.971;entryDx=0;entryDy=0;entryPerimeter=0;fillColor=#f5f5f5;strokeColor=#666666;fontSize=18;" edge="1" parent="1" source="fxuuurCv_EN5jlDv2_y5-47" target="fxuuurCv_EN5jlDv2_y5-46">
          <mxGeometry width="50" height="50" relative="1" as="geometry">
            <mxPoint x="1672.5" y="860" as="sourcePoint" />
            <mxPoint x="1722.5" y="810" as="targetPoint" />
          </mxGeometry>
        </mxCell>
        <mxCell id="fxuuurCv_EN5jlDv2_y5-56" value="" style="endArrow=none;html=1;rounded=0;entryX=0;entryY=0.5;entryDx=0;entryDy=0;exitX=1;exitY=0.25;exitDx=0;exitDy=0;fillColor=#f5f5f5;strokeColor=#666666;fontSize=18;" edge="1" parent="1" source="fxuuurCv_EN5jlDv2_y5-46" target="fxuuurCv_EN5jlDv2_y5-49">
          <mxGeometry width="50" height="50" relative="1" as="geometry">
            <mxPoint x="1722.5" y="790" as="sourcePoint" />
            <mxPoint x="1802.5" y="796" as="targetPoint" />
          </mxGeometry>
        </mxCell>
        <mxCell id="fxuuurCv_EN5jlDv2_y5-57" value="assign" style="rhombus;whiteSpace=wrap;html=1;fillColor=#f5f5f5;fontColor=#333333;strokeColor=#666666;fontSize=18;" vertex="1" parent="1">
          <mxGeometry x="1242.5" y="750" width="80" height="80" as="geometry" />
        </mxCell>
        <mxCell id="fxuuurCv_EN5jlDv2_y5-58" value="" style="endArrow=none;html=1;rounded=0;entryX=0;entryY=0.5;entryDx=0;entryDy=0;exitX=1;exitY=0.5;exitDx=0;exitDy=0;fillColor=#f5f5f5;strokeColor=#666666;fontSize=18;" edge="1" parent="1" source="fxuuurCv_EN5jlDv2_y5-57" target="fxuuurCv_EN5jlDv2_y5-46">
          <mxGeometry width="50" height="50" relative="1" as="geometry">
            <mxPoint x="1107.5" y="750" as="sourcePoint" />
            <mxPoint x="1157.5" y="700" as="targetPoint" />
          </mxGeometry>
        </mxCell>
        <mxCell id="fxuuurCv_EN5jlDv2_y5-59" value="m" style="text;html=1;align=center;verticalAlign=middle;resizable=0;points=[];autosize=1;fontSize=18;" vertex="1" parent="1">
          <mxGeometry x="1562.5" y="753" width="40" height="40" as="geometry" />
        </mxCell>
        <mxCell id="fxuuurCv_EN5jlDv2_y5-60" value="" style="endArrow=none;html=1;rounded=0;exitX=1;exitY=0.5;exitDx=0;exitDy=0;entryX=0;entryY=0.5;entryDx=0;entryDy=0;fillColor=#f5f5f5;strokeColor=#666666;fontSize=18;" edge="1" parent="1" source="fxuuurCv_EN5jlDv2_y5-34" target="fxuuurCv_EN5jlDv2_y5-57">
          <mxGeometry width="50" height="50" relative="1" as="geometry">
            <mxPoint x="1097.5" y="840" as="sourcePoint" />
            <mxPoint x="1147.5" y="790" as="targetPoint" />
          </mxGeometry>
        </mxCell>
        <mxCell id="fxuuurCv_EN5jlDv2_y5-61" value="m" style="text;html=1;align=center;verticalAlign=middle;resizable=0;points=[];autosize=1;fontSize=18;" vertex="1" parent="1">
          <mxGeometry x="1027.5" y="753" width="40" height="40" as="geometry" />
        </mxCell>
        <mxCell id="fxuuurCv_EN5jlDv2_y5-62" value="num_of_passenger" style="ellipse;whiteSpace=wrap;html=1;fillColor=#f5f5f5;fontColor=#333333;strokeColor=#666666;fontSize=18;" vertex="1" parent="1">
          <mxGeometry x="1067.5" y="820" width="160" height="60" as="geometry" />
        </mxCell>
        <mxCell id="fxuuurCv_EN5jlDv2_y5-63" value="departure date_time" style="ellipse;whiteSpace=wrap;html=1;fillColor=#f5f5f5;fontColor=#333333;strokeColor=#666666;fontSize=18;" vertex="1" parent="1">
          <mxGeometry x="1242.5" y="962.5" width="115" height="60" as="geometry" />
        </mxCell>
        <mxCell id="fxuuurCv_EN5jlDv2_y5-64" value="price" style="ellipse;whiteSpace=wrap;html=1;fillColor=#f5f5f5;fontColor=#333333;strokeColor=#666666;fontSize=18;" vertex="1" parent="1">
          <mxGeometry x="1117.5" y="907.5" width="125" height="65" as="geometry" />
        </mxCell>
        <mxCell id="fxuuurCv_EN5jlDv2_y5-65" value="arrival date_time" style="ellipse;whiteSpace=wrap;html=1;fillColor=#f5f5f5;fontColor=#333333;strokeColor=#666666;fontSize=18;" vertex="1" parent="1">
          <mxGeometry x="1337.5" y="900" width="110" height="62.5" as="geometry" />
        </mxCell>
        <mxCell id="fxuuurCv_EN5jlDv2_y5-66" value="" style="endArrow=none;html=1;rounded=0;entryX=0;entryY=1;entryDx=0;entryDy=0;exitX=0.952;exitY=0.333;exitDx=0;exitDy=0;exitPerimeter=0;fillColor=#f5f5f5;strokeColor=#666666;fontSize=18;" edge="1" parent="1" source="fxuuurCv_EN5jlDv2_y5-62" target="fxuuurCv_EN5jlDv2_y5-57">
          <mxGeometry width="50" height="50" relative="1" as="geometry">
            <mxPoint x="1212.5" y="910" as="sourcePoint" />
            <mxPoint x="1283.2106781186549" y="860" as="targetPoint" />
          </mxGeometry>
        </mxCell>
        <mxCell id="fxuuurCv_EN5jlDv2_y5-67" value="" style="endArrow=none;html=1;rounded=0;entryX=0.371;entryY=0.829;entryDx=0;entryDy=0;exitX=0.744;exitY=0.021;exitDx=0;exitDy=0;exitPerimeter=0;entryPerimeter=0;fillColor=#f5f5f5;strokeColor=#666666;fontSize=18;" edge="1" parent="1" source="fxuuurCv_EN5jlDv2_y5-64" target="fxuuurCv_EN5jlDv2_y5-57">
          <mxGeometry width="50" height="50" relative="1" as="geometry">
            <mxPoint x="1217.5" y="860" as="sourcePoint" />
            <mxPoint x="1272.5" y="820" as="targetPoint" />
          </mxGeometry>
        </mxCell>
        <mxCell id="fxuuurCv_EN5jlDv2_y5-68" value="" style="endArrow=none;html=1;rounded=0;entryX=0.5;entryY=1;entryDx=0;entryDy=0;fillColor=#f5f5f5;strokeColor=#666666;fontSize=18;" edge="1" parent="1" target="fxuuurCv_EN5jlDv2_y5-57">
          <mxGeometry width="50" height="50" relative="1" as="geometry">
            <mxPoint x="1287.5" y="962.5" as="sourcePoint" />
            <mxPoint x="1287.5" y="832.5" as="targetPoint" />
          </mxGeometry>
        </mxCell>
        <mxCell id="fxuuurCv_EN5jlDv2_y5-69" value="" style="endArrow=none;html=1;rounded=0;entryX=0.616;entryY=0.899;entryDx=0;entryDy=0;exitX=0.091;exitY=0.16;exitDx=0;exitDy=0;exitPerimeter=0;entryPerimeter=0;fillColor=#f5f5f5;strokeColor=#666666;fontSize=18;" edge="1" parent="1" source="fxuuurCv_EN5jlDv2_y5-65" target="fxuuurCv_EN5jlDv2_y5-57">
          <mxGeometry width="50" height="50" relative="1" as="geometry">
            <mxPoint x="1237.5" y="880" as="sourcePoint" />
            <mxPoint x="1292.5" y="840" as="targetPoint" />
          </mxGeometry>
        </mxCell>
        <mxCell id="fxuuurCv_EN5jlDv2_y5-70" value="" style="endArrow=none;html=1;rounded=0;entryX=1;entryY=1;entryDx=0;entryDy=0;exitX=0.022;exitY=0.33;exitDx=0;exitDy=0;exitPerimeter=0;fillColor=#f5f5f5;strokeColor=#666666;fontSize=18;" edge="1" parent="1" source="fxuuurCv_EN5jlDv2_y5-110" target="fxuuurCv_EN5jlDv2_y5-57">
          <mxGeometry width="50" height="50" relative="1" as="geometry">
            <mxPoint x="1377.5" y="855" as="sourcePoint" />
            <mxPoint x="1302.5" y="850" as="targetPoint" />
          </mxGeometry>
        </mxCell>
        <mxCell id="fxuuurCv_EN5jlDv2_y5-71" value="" style="rounded=0;whiteSpace=wrap;html=1;fillColor=#f5f5f5;fontColor=#333333;strokeColor=#666666;fontSize=18;" vertex="1" parent="1">
          <mxGeometry x="520" y="603" width="120" height="40" as="geometry" />
        </mxCell>
        <mxCell id="fxuuurCv_EN5jlDv2_y5-72" value="&lt;b&gt;crew&lt;/b&gt;" style="rounded=0;whiteSpace=wrap;html=1;fillColor=#f5f5f5;fontColor=#333333;strokeColor=#666666;fontSize=18;" vertex="1" parent="1">
          <mxGeometry x="525" y="608" width="110" height="30" as="geometry" />
        </mxCell>
        <mxCell id="fxuuurCv_EN5jlDv2_y5-73" value="" style="rhombus;whiteSpace=wrap;html=1;fillColor=#f5f5f5;fontColor=#333333;strokeColor=#666666;fontSize=18;" vertex="1" parent="1">
          <mxGeometry x="780" y="583" width="80" height="80" as="geometry" />
        </mxCell>
        <mxCell id="fxuuurCv_EN5jlDv2_y5-74" value="" style="endArrow=none;html=1;rounded=0;exitX=1;exitY=0.5;exitDx=0;exitDy=0;entryX=0;entryY=0.5;entryDx=0;entryDy=0;fillColor=#f5f5f5;strokeColor=#666666;fontSize=18;" edge="1" parent="1" source="fxuuurCv_EN5jlDv2_y5-71" target="fxuuurCv_EN5jlDv2_y5-73">
          <mxGeometry width="50" height="50" relative="1" as="geometry">
            <mxPoint x="700" y="673" as="sourcePoint" />
            <mxPoint x="750" y="623" as="targetPoint" />
          </mxGeometry>
        </mxCell>
        <mxCell id="fxuuurCv_EN5jlDv2_y5-75" value="" style="endArrow=none;html=1;rounded=0;entryX=0;entryY=0;entryDx=0;entryDy=0;exitX=1;exitY=0.5;exitDx=0;exitDy=0;fillColor=#f5f5f5;strokeColor=#666666;fontSize=18;" edge="1" parent="1" source="fxuuurCv_EN5jlDv2_y5-73" target="fxuuurCv_EN5jlDv2_y5-34">
          <mxGeometry width="50" height="50" relative="1" as="geometry">
            <mxPoint x="657.5" y="870" as="sourcePoint" />
            <mxPoint x="707.5" y="820" as="targetPoint" />
          </mxGeometry>
        </mxCell>
        <mxCell id="fxuuurCv_EN5jlDv2_y5-76" value="major pilot" style="ellipse;whiteSpace=wrap;html=1;fillColor=#f5f5f5;fontColor=#333333;strokeColor=#666666;fontSize=18;" vertex="1" parent="1">
          <mxGeometry x="470" y="493" width="120" height="60" as="geometry" />
        </mxCell>
        <mxCell id="fxuuurCv_EN5jlDv2_y5-77" value="assistant pilot" style="ellipse;whiteSpace=wrap;html=1;fillColor=#f5f5f5;fontColor=#333333;strokeColor=#666666;fontSize=18;" vertex="1" parent="1">
          <mxGeometry x="370" y="643" width="110" height="65" as="geometry" />
        </mxCell>
        <mxCell id="fxuuurCv_EN5jlDv2_y5-78" value="host1" style="ellipse;whiteSpace=wrap;html=1;fillColor=#f5f5f5;fontColor=#333333;strokeColor=#666666;fontSize=18;" vertex="1" parent="1">
          <mxGeometry x="480" y="698" width="120" height="60" as="geometry" />
        </mxCell>
        <mxCell id="fxuuurCv_EN5jlDv2_y5-79" value="" style="endArrow=none;html=1;rounded=0;exitX=1;exitY=0.75;exitDx=0;exitDy=0;entryX=0.02;entryY=0.607;entryDx=0;entryDy=0;entryPerimeter=0;fillColor=#f5f5f5;strokeColor=#666666;fontSize=18;" edge="1" parent="1" source="fxuuurCv_EN5jlDv2_y5-71" target="fxuuurCv_EN5jlDv2_y5-73">
          <mxGeometry width="50" height="50" relative="1" as="geometry">
            <mxPoint x="660" y="703" as="sourcePoint" />
            <mxPoint x="710" y="653" as="targetPoint" />
          </mxGeometry>
        </mxCell>
        <mxCell id="fxuuurCv_EN5jlDv2_y5-80" value="1" style="text;html=1;align=center;verticalAlign=middle;resizable=0;points=[];autosize=1;fontSize=18;" vertex="1" parent="1">
          <mxGeometry x="867.5" y="748" width="30" height="40" as="geometry" />
        </mxCell>
        <mxCell id="fxuuurCv_EN5jlDv2_y5-81" value="1" style="text;html=1;align=center;verticalAlign=middle;resizable=0;points=[];autosize=1;fontSize=18;" vertex="1" parent="1">
          <mxGeometry x="635" y="623" width="30" height="40" as="geometry" />
        </mxCell>
        <mxCell id="fxuuurCv_EN5jlDv2_y5-82" value="" style="endArrow=none;html=1;rounded=0;exitX=1;exitY=0;exitDx=0;exitDy=0;entryX=0;entryY=0.75;entryDx=0;entryDy=0;fillColor=#f5f5f5;strokeColor=#666666;fontSize=18;" edge="1" parent="1" source="fxuuurCv_EN5jlDv2_y5-77" target="fxuuurCv_EN5jlDv2_y5-71">
          <mxGeometry width="50" height="50" relative="1" as="geometry">
            <mxPoint x="500" y="613" as="sourcePoint" />
            <mxPoint x="550" y="563" as="targetPoint" />
          </mxGeometry>
        </mxCell>
        <mxCell id="fxuuurCv_EN5jlDv2_y5-83" value="" style="endArrow=none;html=1;rounded=0;exitX=0.587;exitY=0.045;exitDx=0;exitDy=0;exitPerimeter=0;entryX=0.25;entryY=1;entryDx=0;entryDy=0;fillColor=#f5f5f5;strokeColor=#666666;fontSize=18;" edge="1" parent="1" source="fxuuurCv_EN5jlDv2_y5-78" target="fxuuurCv_EN5jlDv2_y5-71">
          <mxGeometry width="50" height="50" relative="1" as="geometry">
            <mxPoint x="540" y="713" as="sourcePoint" />
            <mxPoint x="590" y="663" as="targetPoint" />
          </mxGeometry>
        </mxCell>
        <mxCell id="fxuuurCv_EN5jlDv2_y5-84" value="" style="endArrow=none;html=1;rounded=0;entryX=0.603;entryY=1.017;entryDx=0;entryDy=0;entryPerimeter=0;exitX=0.163;exitY=0.06;exitDx=0;exitDy=0;exitPerimeter=0;fillColor=#f5f5f5;strokeColor=#666666;fontSize=18;" edge="1" parent="1" source="fxuuurCv_EN5jlDv2_y5-71" target="fxuuurCv_EN5jlDv2_y5-76">
          <mxGeometry width="50" height="50" relative="1" as="geometry">
            <mxPoint x="520" y="593" as="sourcePoint" />
            <mxPoint x="570" y="543" as="targetPoint" />
          </mxGeometry>
        </mxCell>
        <mxCell id="fxuuurCv_EN5jlDv2_y5-85" value="work" style="rhombus;whiteSpace=wrap;html=1;fillColor=#f5f5f5;fontColor=#333333;strokeColor=#666666;fontSize=18;" vertex="1" parent="1">
          <mxGeometry x="1197.5" y="390" width="80" height="80" as="geometry" />
        </mxCell>
        <mxCell id="fxuuurCv_EN5jlDv2_y5-86" value="" style="endArrow=none;html=1;rounded=0;exitX=1;exitY=0.5;exitDx=0;exitDy=0;entryX=0;entryY=0.5;entryDx=0;entryDy=0;fillColor=#f5f5f5;strokeColor=#666666;fontSize=18;" edge="1" parent="1" source="fxuuurCv_EN5jlDv2_y5-1" target="fxuuurCv_EN5jlDv2_y5-85">
          <mxGeometry width="50" height="50" relative="1" as="geometry">
            <mxPoint x="1147.5" y="520" as="sourcePoint" />
            <mxPoint x="1197.5" y="470" as="targetPoint" />
          </mxGeometry>
        </mxCell>
        <mxCell id="fxuuurCv_EN5jlDv2_y5-87" value="" style="endArrow=none;html=1;rounded=0;exitX=1;exitY=0.5;exitDx=0;exitDy=0;entryX=0;entryY=0.5;entryDx=0;entryDy=0;fillColor=#f5f5f5;strokeColor=#666666;fontSize=18;" edge="1" parent="1" source="fxuuurCv_EN5jlDv2_y5-85" target="fxuuurCv_EN5jlDv2_y5-13">
          <mxGeometry width="50" height="50" relative="1" as="geometry">
            <mxPoint x="1317.5" y="480" as="sourcePoint" />
            <mxPoint x="1367.5" y="430" as="targetPoint" />
          </mxGeometry>
        </mxCell>
        <mxCell id="fxuuurCv_EN5jlDv2_y5-88" value="m" style="text;html=1;align=center;verticalAlign=middle;resizable=0;points=[];autosize=1;fontSize=18;" vertex="1" parent="1">
          <mxGeometry x="1377.5" y="393" width="40" height="40" as="geometry" />
        </mxCell>
        <mxCell id="fxuuurCv_EN5jlDv2_y5-89" value="1" style="text;html=1;align=center;verticalAlign=middle;resizable=0;points=[];autosize=1;fontSize=18;" vertex="1" parent="1">
          <mxGeometry x="1042.5" y="393" width="30" height="40" as="geometry" />
        </mxCell>
        <mxCell id="fxuuurCv_EN5jlDv2_y5-90" value="&lt;b&gt;transaction&lt;/b&gt;" style="rounded=0;whiteSpace=wrap;html=1;fillColor=#f5f5f5;fontColor=#333333;strokeColor=#666666;fontSize=18;" vertex="1" parent="1">
          <mxGeometry x="1387.5" y="570" width="115" height="40" as="geometry" />
        </mxCell>
        <mxCell id="fxuuurCv_EN5jlDv2_y5-91" value="&lt;u style=&quot;font-size: 18px;&quot;&gt;id&lt;/u&gt;" style="ellipse;whiteSpace=wrap;html=1;fillColor=#f5f5f5;fontColor=#333333;strokeColor=#666666;fontSize=18;" vertex="1" parent="1">
          <mxGeometry x="1512.5" y="490" width="110" height="60" as="geometry" />
        </mxCell>
        <mxCell id="fxuuurCv_EN5jlDv2_y5-92" value="date" style="ellipse;whiteSpace=wrap;html=1;fillColor=#f5f5f5;fontColor=#333333;strokeColor=#666666;fontSize=18;" vertex="1" parent="1">
          <mxGeometry x="1592.5" y="550" width="120" height="60" as="geometry" />
        </mxCell>
        <mxCell id="fxuuurCv_EN5jlDv2_y5-93" value="description" style="ellipse;whiteSpace=wrap;html=1;fillColor=#f5f5f5;fontColor=#333333;strokeColor=#666666;fontSize=18;" vertex="1" parent="1">
          <mxGeometry x="1572.5" y="620" width="120" height="60" as="geometry" />
        </mxCell>
        <mxCell id="fxuuurCv_EN5jlDv2_y5-94" value="amount of money" style="ellipse;whiteSpace=wrap;html=1;fillColor=#f5f5f5;fontColor=#333333;strokeColor=#666666;fontSize=18;" vertex="1" parent="1">
          <mxGeometry x="1455.5" y="670" width="110" height="60" as="geometry" />
        </mxCell>
        <mxCell id="fxuuurCv_EN5jlDv2_y5-95" value="record" style="rhombus;whiteSpace=wrap;html=1;fillColor=#f5f5f5;fontColor=#333333;strokeColor=#666666;fontSize=18;" vertex="1" parent="1">
          <mxGeometry x="1217.5" y="540" width="80" height="80" as="geometry" />
        </mxCell>
        <mxCell id="fxuuurCv_EN5jlDv2_y5-96" value="" style="endArrow=none;html=1;rounded=0;entryX=0.884;entryY=1.014;entryDx=0;entryDy=0;exitX=0;exitY=0.5;exitDx=0;exitDy=0;entryPerimeter=0;fillColor=#f5f5f5;strokeColor=#666666;fontSize=18;" edge="1" parent="1" source="fxuuurCv_EN5jlDv2_y5-95" target="fxuuurCv_EN5jlDv2_y5-1">
          <mxGeometry width="50" height="50" relative="1" as="geometry">
            <mxPoint x="1067.5" y="550" as="sourcePoint" />
            <mxPoint x="1117.5" y="500" as="targetPoint" />
          </mxGeometry>
        </mxCell>
        <mxCell id="fxuuurCv_EN5jlDv2_y5-97" value="" style="endArrow=none;html=1;rounded=0;exitX=1;exitY=0.5;exitDx=0;exitDy=0;entryX=0;entryY=0.5;entryDx=0;entryDy=0;fillColor=#f5f5f5;strokeColor=#666666;fontSize=18;" edge="1" parent="1" source="fxuuurCv_EN5jlDv2_y5-95" target="fxuuurCv_EN5jlDv2_y5-90">
          <mxGeometry width="50" height="50" relative="1" as="geometry">
            <mxPoint x="1367.5" y="620" as="sourcePoint" />
            <mxPoint x="1417.5" y="570" as="targetPoint" />
          </mxGeometry>
        </mxCell>
        <mxCell id="fxuuurCv_EN5jlDv2_y5-98" value="" style="endArrow=none;html=1;rounded=0;exitX=0.967;exitY=0.588;exitDx=0;exitDy=0;entryX=0;entryY=0.75;entryDx=0;entryDy=0;exitPerimeter=0;fillColor=#f5f5f5;strokeColor=#666666;fontSize=18;" edge="1" parent="1" source="fxuuurCv_EN5jlDv2_y5-95" target="fxuuurCv_EN5jlDv2_y5-90">
          <mxGeometry width="50" height="50" relative="1" as="geometry">
            <mxPoint x="1317.5" y="580" as="sourcePoint" />
            <mxPoint x="1527.5" y="600" as="targetPoint" />
          </mxGeometry>
        </mxCell>
        <mxCell id="fxuuurCv_EN5jlDv2_y5-99" value="m" style="text;html=1;align=center;verticalAlign=middle;resizable=0;points=[];autosize=1;fontSize=18;" vertex="1" parent="1">
          <mxGeometry x="1352.5" y="553" width="40" height="40" as="geometry" />
        </mxCell>
        <mxCell id="fxuuurCv_EN5jlDv2_y5-100" value="1" style="text;html=1;align=center;verticalAlign=middle;resizable=0;points=[];autosize=1;fontSize=18;" vertex="1" parent="1">
          <mxGeometry x="1027.5" y="445" width="30" height="40" as="geometry" />
        </mxCell>
        <mxCell id="fxuuurCv_EN5jlDv2_y5-101" value="" style="endArrow=none;html=1;rounded=0;exitX=0.75;exitY=0;exitDx=0;exitDy=0;entryX=0.21;entryY=0.953;entryDx=0;entryDy=0;entryPerimeter=0;fillColor=#f5f5f5;strokeColor=#666666;fontSize=18;" edge="1" parent="1" source="fxuuurCv_EN5jlDv2_y5-90" target="fxuuurCv_EN5jlDv2_y5-91">
          <mxGeometry width="50" height="50" relative="1" as="geometry">
            <mxPoint x="1512.5" y="610" as="sourcePoint" />
            <mxPoint x="1562.5" y="560" as="targetPoint" />
          </mxGeometry>
        </mxCell>
        <mxCell id="fxuuurCv_EN5jlDv2_y5-102" value="" style="endArrow=none;html=1;rounded=0;exitX=1;exitY=0.5;exitDx=0;exitDy=0;entryX=0;entryY=0.5;entryDx=0;entryDy=0;fillColor=#f5f5f5;strokeColor=#666666;fontSize=18;" edge="1" parent="1" source="fxuuurCv_EN5jlDv2_y5-90" target="fxuuurCv_EN5jlDv2_y5-92">
          <mxGeometry width="50" height="50" relative="1" as="geometry">
            <mxPoint x="1552.5" y="640" as="sourcePoint" />
            <mxPoint x="1602.5" y="590" as="targetPoint" />
          </mxGeometry>
        </mxCell>
        <mxCell id="fxuuurCv_EN5jlDv2_y5-103" value="" style="endArrow=none;html=1;rounded=0;exitX=1;exitY=1;exitDx=0;exitDy=0;entryX=0.059;entryY=0.297;entryDx=0;entryDy=0;entryPerimeter=0;fillColor=#f5f5f5;strokeColor=#666666;fontSize=18;" edge="1" parent="1" source="fxuuurCv_EN5jlDv2_y5-90" target="fxuuurCv_EN5jlDv2_y5-93">
          <mxGeometry width="50" height="50" relative="1" as="geometry">
            <mxPoint x="1512.5" y="600" as="sourcePoint" />
            <mxPoint x="1602.5" y="590" as="targetPoint" />
          </mxGeometry>
        </mxCell>
        <mxCell id="fxuuurCv_EN5jlDv2_y5-104" value="" style="endArrow=none;html=1;rounded=0;exitX=0.75;exitY=1;exitDx=0;exitDy=0;entryX=0.346;entryY=0.009;entryDx=0;entryDy=0;entryPerimeter=0;fillColor=#f5f5f5;strokeColor=#666666;fontSize=18;" edge="1" parent="1" source="fxuuurCv_EN5jlDv2_y5-90" target="fxuuurCv_EN5jlDv2_y5-94">
          <mxGeometry width="50" height="50" relative="1" as="geometry">
            <mxPoint x="1522.5" y="610" as="sourcePoint" />
            <mxPoint x="1612.5" y="600" as="targetPoint" />
          </mxGeometry>
        </mxCell>
        <mxCell id="fxuuurCv_EN5jlDv2_y5-105" value="" style="endArrow=none;html=1;rounded=0;exitX=0.896;exitY=0.584;exitDx=0;exitDy=0;exitPerimeter=0;entryX=0;entryY=0.5;entryDx=0;entryDy=0;fillColor=#f5f5f5;strokeColor=#666666;fontSize=18;" edge="1" parent="1" source="fxuuurCv_EN5jlDv2_y5-73" target="fxuuurCv_EN5jlDv2_y5-34">
          <mxGeometry width="50" height="50" relative="1" as="geometry">
            <mxPoint x="787.5" y="790" as="sourcePoint" />
            <mxPoint x="917.5" y="797" as="targetPoint" />
          </mxGeometry>
        </mxCell>
        <mxCell id="fxuuurCv_EN5jlDv2_y5-106" value="1" style="text;html=1;align=center;verticalAlign=middle;resizable=0;points=[];autosize=1;fontSize=18;" vertex="1" parent="1">
          <mxGeometry x="947.5" y="440" width="30" height="40" as="geometry" />
        </mxCell>
        <mxCell id="fxuuurCv_EN5jlDv2_y5-107" value="" style="endArrow=none;html=1;rounded=0;exitX=0.872;exitY=0.59;exitDx=0;exitDy=0;exitPerimeter=0;entryX=0;entryY=0.75;entryDx=0;entryDy=0;fillColor=#f5f5f5;strokeColor=#666666;fontSize=18;" edge="1" parent="1" source="fxuuurCv_EN5jlDv2_y5-85" target="fxuuurCv_EN5jlDv2_y5-13">
          <mxGeometry width="50" height="50" relative="1" as="geometry">
            <mxPoint x="1307.5" y="490" as="sourcePoint" />
            <mxPoint x="1357.5" y="440" as="targetPoint" />
          </mxGeometry>
        </mxCell>
        <mxCell id="fxuuurCv_EN5jlDv2_y5-108" value="host2" style="ellipse;whiteSpace=wrap;html=1;fillColor=#f5f5f5;fontColor=#333333;strokeColor=#666666;fontSize=18;" vertex="1" parent="1">
          <mxGeometry x="620" y="693" width="120" height="60" as="geometry" />
        </mxCell>
        <mxCell id="fxuuurCv_EN5jlDv2_y5-109" value="" style="endArrow=none;html=1;rounded=0;entryX=0.75;entryY=1;entryDx=0;entryDy=0;exitX=0.272;exitY=0.051;exitDx=0;exitDy=0;exitPerimeter=0;fillColor=#f5f5f5;strokeColor=#666666;fontSize=18;" edge="1" parent="1" source="fxuuurCv_EN5jlDv2_y5-108" target="fxuuurCv_EN5jlDv2_y5-71">
          <mxGeometry width="50" height="50" relative="1" as="geometry">
            <mxPoint x="570" y="723" as="sourcePoint" />
            <mxPoint x="620" y="673" as="targetPoint" />
          </mxGeometry>
        </mxCell>
        <mxCell id="fxuuurCv_EN5jlDv2_y5-110" value="duration" style="ellipse;whiteSpace=wrap;html=1;align=center;dashed=1;fillColor=#f5f5f5;fontColor=#333333;strokeColor=#666666;fontSize=18;" vertex="1" parent="1">
          <mxGeometry x="1377.5" y="840" width="100" height="50" as="geometry" />
        </mxCell>
        <mxCell id="fxuuurCv_EN5jlDv2_y5-111" value="has" style="rhombus;whiteSpace=wrap;html=1;fillColor=#f5f5f5;fontColor=#333333;strokeColor=#666666;fontSize=18;" vertex="1" parent="1">
          <mxGeometry x="785" y="588" width="70" height="70" as="geometry" />
        </mxCell>
        <mxCell id="fxuuurCv_EN5jlDv2_y5-112" value="" style="endArrow=none;html=1;rounded=0;exitX=1;exitY=0.75;exitDx=0;exitDy=0;fillColor=#f5f5f5;strokeColor=#666666;fontSize=18;" edge="1" parent="1" source="fxuuurCv_EN5jlDv2_y5-1">
          <mxGeometry width="50" height="50" relative="1" as="geometry">
            <mxPoint x="1137.5" y="520" as="sourcePoint" />
            <mxPoint x="1207.5" y="440" as="targetPoint" />
          </mxGeometry>
        </mxCell>
        <mxCell id="fxuuurCv_EN5jlDv2_y5-113" value="" style="endArrow=none;html=1;rounded=0;exitX=0.645;exitY=-0.075;exitDx=0;exitDy=0;exitPerimeter=0;fillColor=#f5f5f5;strokeColor=#666666;fontSize=18;" edge="1" parent="1" source="fxuuurCv_EN5jlDv2_y5-34">
          <mxGeometry width="50" height="50" relative="1" as="geometry">
            <mxPoint x="947.5" y="690" as="sourcePoint" />
            <mxPoint x="997.5" y="640" as="targetPoint" />
          </mxGeometry>
        </mxCell>
        <mxCell id="fxuuurCv_EN5jlDv2_y5-114" value="" style="endArrow=none;html=1;rounded=0;entryX=1;entryY=1;entryDx=0;entryDy=0;exitX=0.105;exitY=0.384;exitDx=0;exitDy=0;exitPerimeter=0;fillColor=#f5f5f5;strokeColor=#666666;fontSize=18;" edge="1" parent="1" source="fxuuurCv_EN5jlDv2_y5-95" target="fxuuurCv_EN5jlDv2_y5-1">
          <mxGeometry width="50" height="50" relative="1" as="geometry">
            <mxPoint x="1217.5" y="570" as="sourcePoint" />
            <mxPoint x="1057.5" y="450" as="targetPoint" />
          </mxGeometry>
        </mxCell>
      </root>
    </mxGraphModel>
  </diagram>
</mxfile>
